<mxfile host="Electron" agent="Mozilla/5.0 (Windows NT 10.0; Win64; x64) AppleWebKit/537.36 (KHTML, like Gecko) draw.io/24.7.17 Chrome/128.0.6613.36 Electron/32.0.1 Safari/537.36" version="24.7.17">
  <diagram name="Pagina-1" id="n7NLm0gqQ_gLRnlEy_2D">
    <mxGraphModel dx="473" dy="274" grid="1" gridSize="10" guides="1" tooltips="1" connect="1" arrows="1" fold="1" page="1" pageScale="1" pageWidth="827" pageHeight="1169" math="1" shadow="0">
      <root>
        <mxCell id="0" />
        <mxCell id="1" parent="0" />
        <mxCell id="QcLGgLTu59svRpUVo7kO-5" value="" style="pointerEvents=1;verticalLabelPosition=bottom;shadow=0;dashed=0;align=center;html=1;verticalAlign=top;shape=mxgraph.electrical.inductors.inductor_5;" vertex="1" parent="1">
          <mxGeometry x="310" y="356" width="40" height="14" as="geometry" />
        </mxCell>
        <mxCell id="QcLGgLTu59svRpUVo7kO-6" value="" style="pointerEvents=1;verticalLabelPosition=bottom;shadow=0;dashed=0;align=center;html=1;verticalAlign=top;shape=mxgraph.electrical.resistors.resistor_2;rotation=90;" vertex="1" parent="1">
          <mxGeometry x="260" y="400" width="40" height="10" as="geometry" />
        </mxCell>
        <mxCell id="QcLGgLTu59svRpUVo7kO-7" style="edgeStyle=orthogonalEdgeStyle;rounded=0;orthogonalLoop=1;jettySize=auto;html=1;entryX=0;entryY=0.645;entryDx=0;entryDy=0;entryPerimeter=0;endArrow=none;endFill=0;" edge="1" parent="1" source="QcLGgLTu59svRpUVo7kO-6" target="QcLGgLTu59svRpUVo7kO-5">
          <mxGeometry relative="1" as="geometry">
            <Array as="points">
              <mxPoint x="280" y="365" />
            </Array>
          </mxGeometry>
        </mxCell>
        <mxCell id="QcLGgLTu59svRpUVo7kO-8" value="" style="verticalLabelPosition=bottom;shadow=0;dashed=0;align=center;fillColor=strokeColor;html=1;verticalAlign=top;strokeWidth=1;shape=mxgraph.electrical.miscellaneous.monocell_battery;rotation=-180;" vertex="1" parent="1">
          <mxGeometry x="315" y="440" width="30" height="20" as="geometry" />
        </mxCell>
        <mxCell id="QcLGgLTu59svRpUVo7kO-9" style="edgeStyle=orthogonalEdgeStyle;rounded=0;orthogonalLoop=1;jettySize=auto;html=1;entryX=1;entryY=0.5;entryDx=0;entryDy=0;entryPerimeter=0;endArrow=none;endFill=0;" edge="1" parent="1" source="QcLGgLTu59svRpUVo7kO-13" target="QcLGgLTu59svRpUVo7kO-6">
          <mxGeometry relative="1" as="geometry">
            <Array as="points" />
          </mxGeometry>
        </mxCell>
        <mxCell id="QcLGgLTu59svRpUVo7kO-10" style="edgeStyle=orthogonalEdgeStyle;rounded=0;orthogonalLoop=1;jettySize=auto;html=1;entryX=0;entryY=0.5;entryDx=0;entryDy=0;entryPerimeter=0;exitX=1;exitY=0.645;exitDx=0;exitDy=0;exitPerimeter=0;endArrow=none;endFill=0;" edge="1" parent="1" source="QcLGgLTu59svRpUVo7kO-5" target="QcLGgLTu59svRpUVo7kO-8">
          <mxGeometry relative="1" as="geometry">
            <Array as="points">
              <mxPoint x="380" y="365" />
              <mxPoint x="380" y="450" />
            </Array>
          </mxGeometry>
        </mxCell>
        <mxCell id="QcLGgLTu59svRpUVo7kO-12" value="\(\Delta V\)" style="text;html=1;align=center;verticalAlign=middle;whiteSpace=wrap;rounded=0;" vertex="1" parent="1">
          <mxGeometry x="315" y="460" width="30" height="20" as="geometry" />
        </mxCell>
        <mxCell id="QcLGgLTu59svRpUVo7kO-14" value="" style="edgeStyle=orthogonalEdgeStyle;rounded=0;orthogonalLoop=1;jettySize=auto;html=1;entryDx=0;entryDy=0;entryPerimeter=0;endArrow=none;endFill=0;" edge="1" parent="1" source="QcLGgLTu59svRpUVo7kO-8" target="QcLGgLTu59svRpUVo7kO-13">
          <mxGeometry relative="1" as="geometry">
            <mxPoint x="315" y="450" as="sourcePoint" />
            <mxPoint x="280" y="425" as="targetPoint" />
            <Array as="points">
              <mxPoint x="280" y="450" />
            </Array>
          </mxGeometry>
        </mxCell>
        <mxCell id="QcLGgLTu59svRpUVo7kO-13" value="" style="shape=waypoint;sketch=0;fillStyle=solid;size=6;pointerEvents=1;points=[];fillColor=none;resizable=0;rotatable=0;perimeter=centerPerimeter;snapToPoint=1;" vertex="1" parent="1">
          <mxGeometry x="270" y="420" width="20" height="20" as="geometry" />
        </mxCell>
        <mxCell id="QcLGgLTu59svRpUVo7kO-22" style="edgeStyle=orthogonalEdgeStyle;rounded=0;orthogonalLoop=1;jettySize=auto;html=1;endArrow=none;endFill=0;curved=1;dashed=1;" edge="1" parent="1" source="QcLGgLTu59svRpUVo7kO-15" target="QcLGgLTu59svRpUVo7kO-13">
          <mxGeometry relative="1" as="geometry">
            <Array as="points">
              <mxPoint x="260" y="380" />
              <mxPoint x="260" y="430" />
            </Array>
          </mxGeometry>
        </mxCell>
        <mxCell id="QcLGgLTu59svRpUVo7kO-15" value="" style="shape=waypoint;sketch=0;fillStyle=solid;size=6;pointerEvents=1;points=[];fillColor=none;resizable=0;rotatable=0;perimeter=centerPerimeter;snapToPoint=1;" vertex="1" parent="1">
          <mxGeometry x="270" y="370" width="20" height="20" as="geometry" />
        </mxCell>
        <mxCell id="QcLGgLTu59svRpUVo7kO-19" value="" style="shape=waypoint;sketch=0;fillStyle=solid;size=6;pointerEvents=1;points=[];fillColor=none;resizable=0;rotatable=0;perimeter=centerPerimeter;snapToPoint=1;" vertex="1" parent="1">
          <mxGeometry x="340" y="356" width="20" height="20" as="geometry" />
        </mxCell>
        <mxCell id="QcLGgLTu59svRpUVo7kO-23" style="edgeStyle=orthogonalEdgeStyle;rounded=0;orthogonalLoop=1;jettySize=auto;html=1;endArrow=none;endFill=0;curved=1;dashed=1;" edge="1" parent="1" source="QcLGgLTu59svRpUVo7kO-21" target="QcLGgLTu59svRpUVo7kO-19">
          <mxGeometry relative="1" as="geometry">
            <Array as="points">
              <mxPoint x="310" y="340" />
              <mxPoint x="350" y="340" />
            </Array>
          </mxGeometry>
        </mxCell>
        <mxCell id="QcLGgLTu59svRpUVo7kO-21" value="" style="shape=waypoint;sketch=0;fillStyle=solid;size=6;pointerEvents=1;points=[];fillColor=none;resizable=0;rotatable=0;perimeter=centerPerimeter;snapToPoint=1;" vertex="1" parent="1">
          <mxGeometry x="300" y="356" width="20" height="20" as="geometry" />
        </mxCell>
        <mxCell id="QcLGgLTu59svRpUVo7kO-24" value="\(RI\)" style="text;html=1;align=center;verticalAlign=middle;whiteSpace=wrap;rounded=0;" vertex="1" parent="1">
          <mxGeometry x="230" y="395" width="30" height="20" as="geometry" />
        </mxCell>
        <mxCell id="QcLGgLTu59svRpUVo7kO-25" value="\(L\frac{dI}{dt}\)" style="text;html=1;align=center;verticalAlign=middle;whiteSpace=wrap;rounded=0;" vertex="1" parent="1">
          <mxGeometry x="315" y="310" width="30" height="20" as="geometry" />
        </mxCell>
      </root>
    </mxGraphModel>
  </diagram>
</mxfile>
